HIERARCHY
ROOT newVegas:Hips
{
	OFFSET 0.000000 96.479958 0.000000
	CHANNELS 6 Xposition Yposition Zposition Xrotation Yrotation Zrotation
	JOINT newVegas:Pelvis
	{
		OFFSET 0.000000 0.000000 0.000000
		CHANNELS 3 Xrotation Yrotation Zrotation
		JOINT newVegas:LeftUpLeg
		{
			OFFSET 18.735201 -5.666702 -4.541200
			CHANNELS 3 Xrotation Yrotation Zrotation
			JOINT newVegas:LeftLeg
			{
				OFFSET -0.021200 -31.938179 0.493100
				CHANNELS 3 Xrotation Yrotation Zrotation
				JOINT newVegas:LeftFoot
				{
					OFFSET 0.021200 -31.938179 -4.336299
					CHANNELS 3 Xrotation Yrotation Zrotation
					JOINT newVegas:LeftToeBase
					{
						OFFSET 0.943001 -26.722000 15.023500
						CHANNELS 3 Xrotation Yrotation Zrotation
						End Site
						{
							OFFSET 0.000000 30.670183 0.000000
						}
					}
				}
				JOINT newVegas:Left_PantLeg
				{
					OFFSET 0.663870 -9.044666 -1.108900
					CHANNELS 3 Xrotation Yrotation Zrotation
					End Site
					{
						OFFSET 1.415995 20.635357 0.000000
					}
				}
			}
		}
		JOINT newVegas:RightUpLeg
		{
			OFFSET -18.735201 -5.666702 -4.541200
			CHANNELS 3 Xrotation Yrotation Zrotation
			JOINT newVegas:RightLeg
			{
				OFFSET 0.018946 -31.938133 0.493100
				CHANNELS 3 Xrotation Yrotation Zrotation
				JOINT newVegas:RightFoot
				{
					OFFSET -0.018946 -31.938126 -4.336299
					CHANNELS 3 Xrotation Yrotation Zrotation
					JOINT newVegas:RightToeBase
					{
						OFFSET -0.943001 -26.722004 15.023500
						CHANNELS 3 Xrotation Yrotation Zrotation
						End Site
						{
							OFFSET 0.000000 30.670187 0.000000
						}
					}
				}
				JOINT newVegas:Right_PantLeg
				{
					OFFSET -0.661674 -9.044716 -1.108900
					CHANNELS 3 Xrotation Yrotation Zrotation
					End Site
					{
						OFFSET -1.415958 20.635269 0.000000
					}
				}
			}
		}
	}
	JOINT newVegas:Spine
	{
		OFFSET 0.000000 10.199997 -0.299500
		CHANNELS 3 Xrotation Yrotation Zrotation
		JOINT newVegas:Spine1
		{
			OFFSET 0.000000 11.900002 -1.516600
			CHANNELS 3 Xrotation Yrotation Zrotation
			JOINT newVegas:Spine2
			{
				OFFSET 0.000000 13.600006 -2.842500
				CHANNELS 3 Xrotation Yrotation Zrotation
				JOINT newVegas:Neck
				{
					OFFSET 0.000000 9.624100 -2.890100
					CHANNELS 3 Xrotation Yrotation Zrotation
					JOINT newVegas:Head
					{
						OFFSET 0.000000 14.068802 -1.351900
						CHANNELS 3 Xrotation Yrotation Zrotation
						JOINT newVegas:Hair_Back
						{
							OFFSET 0.000000 3.231903 -17.524799
							CHANNELS 3 Xrotation Yrotation Zrotation
							End Site
							{
								OFFSET 0.000000 19.849884 0.000000
							}
						}
						JOINT newVegas:Hair_Front
						{
							OFFSET 0.000000 31.260406 4.573800
							CHANNELS 3 Xrotation Yrotation Zrotation
							JOINT newVegas:Hair_Front1
							{
								OFFSET 0.000000 2.284103 11.993300
								CHANNELS 3 Xrotation Yrotation Zrotation
								JOINT newVegas:Hair_Front2
								{
									OFFSET 0.000000 2.284103 11.993300
									CHANNELS 3 Xrotation Yrotation Zrotation
									End Site
									{
										OFFSET 0.000000 12.208862 0.000000
									}
								}
							}
						}
						JOINT newVegas:Jowel
						{
							OFFSET 0.000000 -7.458206 6.864100
							CHANNELS 3 Xrotation Yrotation Zrotation
							End Site
							{
								OFFSET 0.000000 19.849884 0.000000
							}
						}
					}
				}
				JOINT newVegas:LeftShoulder
				{
					OFFSET 15.263000 10.923401 -0.547700
					CHANNELS 3 Xrotation Yrotation Zrotation
					JOINT newVegas:LeftArm
					{
						OFFSET 25.438599 -2.830597 -13.032500
						CHANNELS 3 Xrotation Yrotation Zrotation
						JOINT newVegas:LeftForeArm
						{
							OFFSET 29.960503 0.000000 0.000000
							CHANNELS 3 Xrotation Yrotation Zrotation
							JOINT newVegas:LeftHand
							{
								OFFSET 27.849251 0.000000 0.000000
								CHANNELS 3 Xrotation Yrotation Zrotation
								JOINT newVegas:LeftHandThumb1
								{
									OFFSET 4.487587 -3.305161 6.305391
									CHANNELS 3 Xrotation Yrotation Zrotation
									JOINT newVegas:LeftHandThumb2
									{
										OFFSET 5.480453 -3.164139 3.164143
										CHANNELS 3 Xrotation Yrotation Zrotation
										JOINT newVegas:LeftHandThumb3
										{
											OFFSET 5.159721 -2.978973 2.978967
											CHANNELS 3 Xrotation Yrotation Zrotation
											End Site
											{
												OFFSET 2.494507 5.926697 1.738678
											}
										}
									}
								}
								JOINT newVegas:LeftHandIndex1
								{
									OFFSET 18.578728 -0.527832 5.208049
									CHANNELS 3 Xrotation Yrotation Zrotation
									JOINT newVegas:LeftHandIndex2
									{
										OFFSET 3.192009 0.000000 0.000000
										CHANNELS 3 Xrotation Yrotation Zrotation
										JOINT newVegas:LeftHandIndex3
										{
											OFFSET 3.835129 0.000000 0.000000
											CHANNELS 3 Xrotation Yrotation Zrotation
											End Site
											{
												OFFSET -0.034599 3.816971 0.371180
											}
										}
									}
								}
								JOINT newVegas:LeftHandMiddle1
								{
									OFFSET 18.476105 0.000000 0.000000
									CHANNELS 3 Xrotation Yrotation Zrotation
									JOINT newVegas:LeftHandMiddle2
									{
										OFFSET 3.324875 0.000000 0.000000
										CHANNELS 3 Xrotation Yrotation Zrotation
										JOINT newVegas:LeftHandMiddle3
										{
											OFFSET 4.596550 0.000000 0.000000
											CHANNELS 3 Xrotation Yrotation Zrotation
											End Site
											{
												OFFSET 0.057701 4.578827 0.399218
											}
										}
									}
								}
								JOINT newVegas:LeftHandRing1
								{
									OFFSET 17.732719 0.121887 -4.201567
									CHANNELS 3 Xrotation Yrotation Zrotation
									JOINT newVegas:LeftHandRing2
									{
										OFFSET 2.733170 0.000000 0.000000
										CHANNELS 3 Xrotation Yrotation Zrotation
										JOINT newVegas:LeftHandRing3
										{
											OFFSET 3.178268 0.000000 0.000000
											CHANNELS 3 Xrotation Yrotation Zrotation
											End Site
											{
												OFFSET 0.119102 3.170624 0.185394
											}
										}
									}
								}
								JOINT newVegas:LeftHandPinky1
								{
									OFFSET 15.989624 -0.606689 -7.535461
									CHANNELS 3 Xrotation Yrotation Zrotation
									JOINT newVegas:LeftHandPinky2
									{
										OFFSET 2.538986 0.000000 0.000000
										CHANNELS 3 Xrotation Yrotation Zrotation
										JOINT newVegas:LeftHandPinky3
										{
											OFFSET 2.593102 0.000000 0.000000
											CHANNELS 3 Xrotation Yrotation Zrotation
											End Site
											{
												OFFSET -0.150902 2.584198 0.152708
											}
										}
									}
								}
							}
							JOINT newVegas:Left_Sleeve
							{
								OFFSET 0.267448 -0.649796 0.577675
								CHANNELS 3 Xrotation Yrotation Zrotation
								End Site
								{
									OFFSET 0.000000 15.991241 0.000000
								}
							}
							JOINT newVegas:Left_CapeC
							{
								OFFSET 15.715958 -8.608795 -6.935905
								CHANNELS 3 Xrotation Yrotation Zrotation
								JOINT newVegas:Left_CapeC1
								{
									OFFSET 0.000000 -8.688499 0.000000
									CHANNELS 3 Xrotation Yrotation Zrotation
									End Site
									{
										OFFSET 0.000000 8.688499 0.000000
									}
								}
							}
						}
						JOINT newVegas:Left_CapeB
						{
							OFFSET 26.118385 -8.608795 -7.079235
							CHANNELS 3 Xrotation Yrotation Zrotation
							JOINT newVegas:Left_CapeB1
							{
								OFFSET 0.000000 -8.688499 0.000000
								CHANNELS 3 Xrotation Yrotation Zrotation
								End Site
								{
									OFFSET 0.000000 8.688499 0.000000
								}
							}
						}
						JOINT newVegas:Left_CapeA
						{
							OFFSET 5.115639 -8.608795 -10.395809
							CHANNELS 3 Xrotation Yrotation Zrotation
							JOINT newVegas:Left_CapeA1
							{
								OFFSET 0.000000 -8.688499 0.000000
								CHANNELS 3 Xrotation Yrotation Zrotation
								End Site
								{
									OFFSET 0.000000 8.688499 0.000000
								}
							}
						}
					}
				}
				JOINT newVegas:RightShoulder
				{
					OFFSET -15.263000 10.923401 -0.547700
					CHANNELS 3 Xrotation Yrotation Zrotation
					JOINT newVegas:RightArm
					{
						OFFSET -25.438599 -2.830597 -13.032500
						CHANNELS 3 Xrotation Yrotation Zrotation
						JOINT newVegas:RightForeArm
						{
							OFFSET -29.960503 0.000000 0.000000
							CHANNELS 3 Xrotation Yrotation Zrotation
							JOINT newVegas:RightHand
							{
								OFFSET -27.849251 0.000000 0.000000
								CHANNELS 3 Xrotation Yrotation Zrotation
								JOINT newVegas:RightHandThumb1
								{
									OFFSET -4.487587 -3.305161 6.305391
									CHANNELS 3 Xrotation Yrotation Zrotation
									JOINT newVegas:RightHandThumb2
									{
										OFFSET -5.480453 -3.164139 3.164143
										CHANNELS 3 Xrotation Yrotation Zrotation
										JOINT newVegas:RightHandThumb3
										{
											OFFSET -5.159721 -2.978973 2.978967
											CHANNELS 3 Xrotation Yrotation Zrotation
											End Site
											{
												OFFSET -2.494507 5.926697 1.738678
											}
										}
									}
								}
								JOINT newVegas:RightHandIndex1
								{
									OFFSET -18.578728 -0.527832 5.208049
									CHANNELS 3 Xrotation Yrotation Zrotation
									JOINT newVegas:RightHandIndex2
									{
										OFFSET -3.192009 0.000000 0.000000
										CHANNELS 3 Xrotation Yrotation Zrotation
										JOINT newVegas:RightHandIndex3
										{
											OFFSET -3.835129 0.000000 0.000000
											CHANNELS 3 Xrotation Yrotation Zrotation
											End Site
											{
												OFFSET 0.034599 3.816971 0.371180
											}
										}
									}
								}
								JOINT newVegas:RightHandMiddle1
								{
									OFFSET -18.476105 0.000000 0.000000
									CHANNELS 3 Xrotation Yrotation Zrotation
									JOINT newVegas:RightHandMiddle2
									{
										OFFSET -3.324875 0.000000 0.000000
										CHANNELS 3 Xrotation Yrotation Zrotation
										JOINT newVegas:RightHandMiddle3
										{
											OFFSET -4.596550 0.000000 0.000000
											CHANNELS 3 Xrotation Yrotation Zrotation
											End Site
											{
												OFFSET -0.057701 4.578827 0.399218
											}
										}
									}
								}
								JOINT newVegas:RightHandRing1
								{
									OFFSET -17.732719 0.121887 -4.201567
									CHANNELS 3 Xrotation Yrotation Zrotation
									JOINT newVegas:RightHandRing2
									{
										OFFSET -2.733170 0.000000 0.000000
										CHANNELS 3 Xrotation Yrotation Zrotation
										JOINT newVegas:RightHandRing3
										{
											OFFSET -3.178268 0.000000 0.000000
											CHANNELS 3 Xrotation Yrotation Zrotation
											End Site
											{
												OFFSET -0.119102 3.170624 0.185394
											}
										}
									}
								}
								JOINT newVegas:RightHandPinky1
								{
									OFFSET -15.989624 -0.606689 -7.535461
									CHANNELS 3 Xrotation Yrotation Zrotation
									JOINT newVegas:RightHandPinky2
									{
										OFFSET -2.538986 0.000000 0.000000
										CHANNELS 3 Xrotation Yrotation Zrotation
										JOINT newVegas:RightHandPinky3
										{
											OFFSET -2.593102 0.000000 0.000000
											CHANNELS 3 Xrotation Yrotation Zrotation
											End Site
											{
												OFFSET 0.150902 2.584198 0.152708
											}
										}
									}
								}
							}
							JOINT newVegas:Right_CapeC
							{
								OFFSET -15.715958 -8.608795 -6.935905
								CHANNELS 3 Xrotation Yrotation Zrotation
								JOINT newVegas:Right_CapeC1
								{
									OFFSET 0.000000 -8.688499 0.000000
									CHANNELS 3 Xrotation Yrotation Zrotation
									End Site
									{
										OFFSET 0.000000 8.688499 0.000000
									}
								}
							}
							JOINT newVegas:Right_Sleeve
							{
								OFFSET -0.267448 -0.649994 0.577675
								CHANNELS 3 Xrotation Yrotation Zrotation
								End Site
								{
									OFFSET 0.000000 15.991302 0.000000
								}
							}
						}
						JOINT newVegas:Right_CapeA
						{
							OFFSET -5.115540 -8.608795 -10.395824
							CHANNELS 3 Xrotation Yrotation Zrotation
							JOINT newVegas:Right_CapeA1
							{
								OFFSET 0.000000 -8.688499 0.000000
								CHANNELS 3 Xrotation Yrotation Zrotation
								End Site
								{
									OFFSET 0.000000 8.688499 0.000000
								}
							}
						}
						JOINT newVegas:Right_CapeB
						{
							OFFSET -26.118187 -8.608795 -7.079266
							CHANNELS 3 Xrotation Yrotation Zrotation
							JOINT newVegas:Right_CapeB1
							{
								OFFSET 0.000000 -8.688499 0.000000
								CHANNELS 3 Xrotation Yrotation Zrotation
								End Site
								{
									OFFSET 0.000000 8.688499 0.000000
								}
							}
						}
					}
				}
				JOINT newVegas:Left_Collar
				{
					OFFSET 18.625099 8.655502 8.828100
					CHANNELS 3 Xrotation Yrotation Zrotation
					JOINT newVegas:Left_Collar1
					{
						OFFSET 14.783401 10.540405 -1.259500
						CHANNELS 3 Xrotation Yrotation Zrotation
						End Site
						{
							OFFSET 0.000000 18.199875 0.000000
						}
					}
				}
				JOINT newVegas:Collar_Back
				{
					OFFSET 0.000000 15.630707 -20.132601
					CHANNELS 3 Xrotation Yrotation Zrotation
					End Site
					{
						OFFSET 0.000000 22.523010 0.000000
					}
				}
				JOINT newVegas:Left_Peck
				{
					OFFSET 17.239599 -5.132599 25.482599
					CHANNELS 3 Xrotation Yrotation Zrotation
					End Site
					{
						OFFSET 0.000000 22.523010 0.000000
					}
				}
				JOINT newVegas:Right_Peck
				{
					OFFSET -17.239599 -5.132202 25.482599
					CHANNELS 3 Xrotation Yrotation Zrotation
					End Site
					{
						OFFSET 0.000000 22.523010 0.000000
					}
				}
				JOINT newVegas:Right_Collar
				{
					OFFSET -18.625099 8.655792 8.828100
					CHANNELS 3 Xrotation Yrotation Zrotation
					JOINT newVegas:Right_Collar1
					{
						OFFSET -14.783401 10.539993 -1.259500
						CHANNELS 3 Xrotation Yrotation Zrotation
						End Site
						{
							OFFSET 0.000000 18.199631 0.000000
						}
					}
				}
			}
		}
		JOINT newVegas:Belly
		{
			OFFSET 0.000000 -6.540398 9.014299
			CHANNELS 3 Xrotation Yrotation Zrotation
			End Site
			{
				OFFSET 0.000000 11.566666 0.000000
			}
		}
	}
	JOINT newVegas:ElvisFacialAnim_Joint
	{
		OFFSET 1.000000 -95.330101 -8.825800
		CHANNELS 3 Xrotation Yrotation Zrotation
		End Site
		{
			OFFSET 0.000000 35.315800 0.000000
		}
	}
}
MOTION
Frames: 4
Frame Time: 0.016667
5.726906 94.769669 3.811925 0.022669 -13.994688 -2.003068 0.000000 -0.000000 -0.000000 -13.973917 21.733990 8.846100 27.579541 9.766494 5.867143 -13.587842 8.617354 -9.950777 -0.000000 0.000001 0.000000 0.000001 -0.000001 -0.000001 -16.284100 -17.786564 -11.100219 13.120729 10.052707 -2.882736 0.342789 7.769199 10.994497 0.000000 0.000000 0.000000 0.000000 -0.000000 -0.000001 1.257414 -1.077659 -2.161249 0.247988 -0.899453 -0.732541 0.243785 -0.917158 -0.703880 0.306829 0.916011 0.590716 0.306831 0.916009 0.590716 -0.000000 0.000000 0.000000 0.306828 0.916014 0.590717 0.306901 0.916008 0.590714 0.000000 0.000000 0.000000 -0.000000 0.000000 0.000000 -1.488744 9.670790 -3.001457 40.860483 -60.704850 -25.987219 0.000010 -22.817341 0.000013 -25.332876 2.522388 11.628329 -3.405749 19.076286 14.453264 15.249459 14.620672 -5.800665 0.000000 -0.000003 -0.000006 0.380318 2.260834 -19.095156 0.158432 1.471495 -12.290080 0.000001 -0.000000 0.000000 0.379692 2.259004 -19.079140 0.158848 1.473380 -12.306089 -0.000001 0.000001 0.000001 0.380321 2.260822 -19.095163 0.158444 1.471497 -12.290079 0.000001 -0.000001 -0.000000 1.696009 6.096989 -18.680654 0.153600 -2.584197 -12.789160 -0.000002 0.000000 0.000000 -0.000000 0.000000 0.000000 -0.000000 0.000000 0.000000 -0.000000 -0.000000 0.000000 -0.000000 -0.000001 -0.000000 0.000000 -0.000002 -0.000002 -0.000000 -0.000001 -0.000000 -0.000000 -0.000001 -0.000000 4.389555 5.095586 -14.946399 -41.397869 -19.780023 36.650822 0.000152 107.697692 -0.000138 -54.775307 -10.060502 16.832156 -38.571847 8.421463 28.523239 20.647214 -5.709697 -0.778460 0.000001 -0.000003 0.000001 6.266118 -6.914863 84.352344 5.176805 -6.719698 75.194789 0.000004 0.000001 -0.000001 6.266124 -6.914822 84.352351 5.176791 -6.719675 75.194775 0.000000 0.000001 0.000001 6.266115 -6.914812 84.352344 5.176801 -6.719676 75.194802 0.000001 -0.000001 -0.000001 6.266142 -6.914863 84.352344 5.176776 -6.719672 75.194796 -0.000002 -0.000002 -0.000002 -0.000000 -0.000000 0.000002 -0.000000 -0.000000 0.000004 -0.000000 -0.000000 0.000004 -0.000000 0.000000 -0.000001 -0.000000 0.000000 -0.000000 -0.000000 0.000000 -0.000001 -0.000000 -0.000000 -0.000000 -0.000000 0.000002 0.000000 -0.000000 0.000002 0.000000 -0.000000 0.000002 0.000000 -0.000000 0.000002 0.000000 -0.000000 0.000002 0.000000 -0.000000 0.000002 0.000000 -0.000000 0.000002 0.000000 -0.000000 -0.000001 0.000000 0.000000 -0.000000 -0.000000 
5.584181 94.779358 3.817556 0.037626 -13.808103 -2.008485 0.000000 -0.000002 0.000000 -14.036962 21.640679 8.991661 27.527658 9.756084 5.854749 -13.463790 8.520322 -10.055520 0.000000 0.000001 0.000000 -0.000000 0.000001 0.000000 -16.224276 -17.674803 -11.035462 13.348211 10.058022 -2.751920 0.136425 7.436758 10.811360 0.000000 -0.000000 0.000000 0.000000 0.000000 -0.000001 1.260448 -1.064843 -2.075728 0.244306 -0.890372 -0.689607 0.239954 -0.906838 -0.661084 0.290294 0.911911 0.569260 0.290295 0.911902 0.569262 -0.000000 0.000002 -0.000000 0.290225 0.911909 0.569263 0.290372 0.911907 0.569259 0.000000 -0.000001 0.000000 -0.000000 0.000002 -0.000000 -1.481852 9.673275 -3.066330 40.859626 -60.864594 -25.969262 -0.000024 -22.750768 0.000009 -25.272304 2.521526 11.564781 -3.405750 19.076285 14.453264 15.249459 14.620676 -5.800664 -0.000002 -0.000002 -0.000005 0.380319 2.260835 -19.095160 0.158434 1.471494 -12.290084 0.000001 -0.000001 -0.000000 0.379693 2.258999 -19.079135 0.158847 1.473379 -12.306088 -0.000001 -0.000000 -0.000001 0.380320 2.260819 -19.095162 0.158448 1.471499 -12.290081 0.000001 -0.000002 -0.000001 1.696008 6.096991 -18.680656 0.153600 -2.584198 -12.789157 -0.000000 0.000000 0.000001 -0.000001 -0.000000 0.000003 -0.000001 -0.000000 0.000003 -0.000001 -0.000001 0.000002 -0.000001 0.000003 -0.000000 -0.000001 0.000002 0.000000 -0.000001 0.000003 -0.000000 -0.000001 0.000002 0.000000 4.393043 5.145400 -14.614276 -40.060040 -18.545335 36.976899 0.000149 107.194143 -0.000160 -53.879455 -10.236968 17.000817 -38.575467 8.422902 28.525132 25.307299 -7.950579 -1.561548 0.000002 -0.000001 0.000001 5.616227 -6.819970 78.921142 4.647606 -6.558062 70.620044 -0.000000 -0.000001 0.000002 5.616220 -6.819942 78.921128 4.647603 -6.558053 70.620058 -0.000001 -0.000003 -0.000002 5.616218 -6.819937 78.921135 4.647630 -6.558049 70.620065 -0.000000 0.000001 -0.000002 5.616240 -6.819982 78.921142 4.647600 -6.558045 70.620044 -0.000000 0.000003 -0.000001 0.000000 0.000001 -0.000000 0.000000 0.000000 0.000002 0.000000 0.000000 -0.000000 0.000001 0.000002 -0.000001 0.000001 0.000002 -0.000002 0.000001 0.000002 -0.000001 0.000001 0.000002 -0.000002 -0.000000 0.000001 -0.000000 -0.000000 0.000001 -0.000000 -0.000000 0.000001 -0.000000 -0.000000 0.000001 -0.000000 -0.000000 0.000001 -0.000000 -0.000000 0.000001 -0.000000 -0.000000 0.000001 -0.000000 0.000000 0.000002 0.000000 0.000000 -0.000002 0.000000 
5.435915 94.790070 3.822725 0.046632 -13.623401 -2.019118 0.000000 0.000000 0.000000 -14.094279 21.533473 9.152360 27.478596 9.744272 5.826420 -13.339961 8.425508 -10.159839 0.000000 -0.000001 -0.000000 -0.000000 0.000001 0.000000 -16.148606 -17.581508 -10.945500 13.558637 10.062530 -2.650149 -0.064328 7.119026 10.636175 0.000000 -0.000001 0.000000 -0.000000 0.000000 -0.000001 1.265504 -1.056313 -1.991213 0.241808 -0.884488 -0.647217 0.237302 -0.899709 -0.618708 0.271846 0.907519 0.550599 0.271850 0.907512 0.550597 0.000000 0.000002 0.000000 0.271846 0.907500 0.550600 0.271843 0.907524 0.550594 -0.000000 0.000001 0.000000 0.000000 0.000002 -0.000000 -1.475812 9.676770 -3.126219 40.863488 -61.027658 -25.944122 -0.000006 -22.683931 0.000023 -25.239987 2.530274 11.484735 -3.405743 19.076291 14.453266 15.249465 14.620672 -5.800663 0.000001 0.000001 -0.000003 0.380317 2.260836 -19.095162 0.158434 1.471496 -12.290078 -0.000001 -0.000001 -0.000000 0.379689 2.259005 -19.079145 0.158849 1.473380 -12.306093 -0.000001 -0.000000 -0.000001 0.380316 2.260824 -19.095167 0.158442 1.471499 -12.290078 -0.000002 -0.000000 -0.000002 1.696009 6.096992 -18.680660 0.153601 -2.584199 -12.789160 0.000000 0.000000 -0.000002 -0.000001 -0.000001 0.000001 -0.000001 -0.000001 0.000001 -0.000001 -0.000001 0.000001 -0.000001 -0.000002 0.000000 -0.000001 -0.000002 -0.000001 -0.000001 -0.000002 0.000000 -0.000001 -0.000002 0.000000 4.393939 5.191681 -14.254584 -38.714796 -17.278393 37.271885 0.000150 106.679625 -0.000155 -53.035323 -10.392666 17.074698 -38.565642 8.419034 28.520012 29.758188 -10.003538 -1.882571 0.000000 -0.000001 0.000001 4.775640 -6.601396 71.737074 4.103761 -6.341897 65.781456 0.000002 -0.000001 -0.000000 4.775616 -6.601388 71.737081 4.103760 -6.341910 65.781449 -0.000000 0.000001 0.000001 4.775624 -6.601371 71.737081 4.103768 -6.341900 65.781463 -0.000001 0.000001 0.000002 4.775644 -6.601428 71.737088 4.103760 -6.341893 65.781449 -0.000002 0.000005 -0.000002 0.000001 -0.000000 0.000002 -0.000001 -0.000000 0.000002 0.000001 -0.000000 0.000000 0.000000 0.000003 -0.000002 -0.000000 0.000003 -0.000002 0.000000 0.000003 -0.000002 -0.000000 0.000003 -0.000002 -0.000000 -0.000000 0.000000 -0.000000 -0.000000 0.000000 -0.000000 -0.000000 0.000000 -0.000000 -0.000000 0.000000 -0.000000 -0.000000 0.000000 -0.000000 -0.000000 0.000000 -0.000000 -0.000000 0.000000 0.000000 0.000002 0.000000 0.000000 0.000000 0.000000 
5.282976 94.802254 3.827112 0.045116 -13.440770 -2.036366 0.000000 0.000001 -0.000000 -14.143816 21.415322 9.323658 27.431500 9.731636 5.795058 -13.212274 8.330411 -10.269745 -0.000000 -0.000001 -0.000000 0.000000 0.000001 -0.000000 -16.049811 -17.494961 -10.832188 13.749863 10.066042 -2.568733 -0.257997 6.805643 10.466502 0.000000 -0.000000 0.000000 -0.000000 0.000001 -0.000000 1.272321 -1.052288 -1.908765 0.240360 -0.881942 -0.605871 0.235707 -0.895953 -0.577244 0.251019 0.902401 0.535458 0.251015 0.902399 0.535461 -0.000000 0.000000 0.000000 0.251020 0.902403 0.535460 0.251021 0.902394 0.535461 -0.000000 -0.000000 0.000000 -0.000000 0.000000 0.000000 -1.470858 9.679988 -3.176226 40.866173 -61.194882 -25.918633 -0.000004 -22.613880 -0.000012 -25.231065 2.553753 11.386488 -3.405744 19.076288 14.453264 15.249461 14.620672 -5.800661 -0.000000 -0.000002 -0.000003 0.380323 2.260834 -19.095162 0.158434 1.471496 -12.290082 0.000001 -0.000002 -0.000001 0.379694 2.259002 -19.079145 0.158854 1.473383 -12.306089 0.000000 0.000001 -0.000000 0.380323 2.260822 -19.095165 0.158443 1.471501 -12.290078 -0.000001 -0.000000 -0.000001 1.696011 6.096991 -18.680661 0.153602 -2.584197 -12.789158 0.000001 -0.000003 -0.000001 0.000000 -0.000001 0.000002 0.000000 -0.000001 0.000002 0.000000 -0.000001 0.000002 -0.000002 0.000001 0.000001 -0.000002 0.000001 0.000001 -0.000002 0.000001 0.000001 -0.000003 0.000001 0.000001 4.391628 5.233463 -13.862315 -37.354988 -15.971190 37.525927 0.000160 106.153468 -0.000168 -52.233612 -10.519501 17.034895 -38.310405 8.317406 28.387222 33.606013 -11.676529 -1.838677 0.000006 -0.000000 -0.000001 3.866121 -6.230262 63.611492 3.573364 -6.077062 60.880679 -0.000001 -0.000001 0.000001 3.866116 -6.230240 63.611498 3.573347 -6.077048 60.880679 -0.000002 0.000003 -0.000003 3.866114 -6.230236 63.611485 3.573353 -6.077058 60.880673 0.000001 0.000004 0.000001 3.866136 -6.230276 63.611492 3.573337 -6.077052 60.880659 0.000001 0.000002 -0.000000 -0.000001 -0.000000 -0.000000 -0.000001 -0.000001 -0.000000 -0.000002 0.000000 -0.000000 0.000002 -0.000001 0.000002 0.000002 -0.000001 0.000001 0.000002 -0.000001 0.000002 0.000002 -0.000001 0.000001 -0.000000 -0.000000 -0.000001 -0.000000 -0.000000 -0.000001 -0.000000 -0.000000 -0.000001 -0.000000 -0.000000 -0.000001 -0.000000 -0.000000 -0.000001 -0.000000 -0.000000 -0.000001 -0.000000 -0.000000 -0.000001 0.000000 0.000000 0.000000 0.000000 0.000001 -0.000000 
